# 3ds Max Wavefront OBJ Exporter v0.97b - (c)2007 guruware
# File Created: 03.12.2018 15:47:46

mtllib sack_low3ds.mtl

#
# object Group47228
#

v  396.6062 -10.9775 261.7321
v  412.7716 5.9220 314.4022
v  81.7093 -11.7801 334.6486
v  384.3709 101.5551 90.8729
v  121.5219 128.6561 147.1002
v  359.0299 134.5025 149.8667
v  130.5168 -0.0609 149.3829
v  409.0571 -11.8518 194.2335
v  34.4380 -13.4920 235.3551
v  -50.8605 112.2278 341.3596
v  30.8659 151.6454 270.8152
v  -69.6195 110.2753 213.4437
v  192.7057 37.8780 389.3860
v  201.1349 113.2602 366.5003
v  44.1775 117.1032 377.0908
v  427.7536 113.2357 194.0186
v  -91.8360 82.1399 283.1862
v  -85.2079 64.1061 337.3093
v  17.5341 14.1886 390.9798
v  394.4995 -3.5567 127.1025
v  454.8062 55.6848 156.2001
v  423.9649 89.3306 113.0574
v  -99.3089 45.3600 293.7050
v  -102.8302 58.3432 244.2125
v  -88.6253 12.1917 226.9001
v  178.3474 32.6771 101.3553
v  -45.4482 27.3776 145.0564
v  160.4885 96.5708 111.3666
v  354.6598 99.6872 340.9974
v  443.6659 2.9226 190.6511
v  464.6053 59.9374 207.6407
v  456.8123 26.1410 306.0853
v  288.6773 159.4776 229.9874
v  132.2734 153.2305 316.3663
v  394.2025 134.8987 254.5485
v  187.3641 159.1297 197.7794
v  -47.6321 108.6545 166.4288
v  -100.4535 57.8154 135.9013
v  -81.3519 54.0298 221.8788
v  -52.8064 62.1539 431.3463
v  -60.7360 63.8049 349.9599
v  38.9840 70.5925 396.2790
v  -67.7497 22.3893 357.7122
v  -7.8834 2.3585 372.9075
v  410.3698 24.6524 73.5051
v  450.5894 62.8577 308.9771
v  -63.5619 9.6503 168.3923
v  100.5730 159.7654 278.5441
v  -13.4150 116.2147 380.8046
v  368.4079 60.2684 349.0995
v  471.9660 66.0173 347.1422
v  421.4354 53.7458 48.4230
v  442.2618 105.2186 320.3375
v  436.7515 53.4860 191.3130
v  -96.1305 62.8727 289.0208
# 55 vertices

vn 0.2250 -0.9637 0.1435
vn 0.2780 -0.7899 0.5465
vn -0.0244 -0.9684 0.2482
vn 0.1403 0.6582 -0.7396
vn -0.1373 0.8194 -0.5565
vn 0.2253 0.9281 -0.2963
vn -0.0541 -0.8670 -0.4953
vn 0.2343 -0.9705 -0.0559
vn -0.1189 -0.9920 -0.0432
vn -0.6052 0.7481 0.2722
vn -0.2251 0.9743 -0.0116
vn -0.6565 0.7438 -0.1252
vn 0.1444 -0.2057 0.9679
vn 0.1432 0.6039 0.7841
vn 0.0939 0.6270 0.7733
vn 0.6524 0.7423 -0.1526
vn -0.8548 0.5068 0.1121
vn -0.7813 0.1952 0.5928
vn 0.0631 -0.6187 0.7831
vn 0.1735 -0.9253 -0.3372
vn 0.9978 0.0600 -0.0288
vn 0.7399 0.5497 -0.3877
vn -0.9628 -0.1948 0.1873
vn -0.9481 0.0835 -0.3069
vn -0.7159 -0.6964 -0.0500
vn -0.1376 -0.2203 -0.9657
vn -0.1542 -0.3496 -0.9241
vn -0.1397 0.4046 -0.9037
vn 0.1718 0.4304 0.8861
vn 0.7507 -0.6478 -0.1295
vn 0.8805 0.1190 -0.4589
vn 0.8171 -0.5354 0.2137
vn 0.1343 0.9904 0.0331
vn 0.0291 0.9266 0.3748
vn 0.3095 0.9483 0.0706
vn -0.0400 0.9634 -0.2652
vn -0.3092 0.7328 -0.6061
vn -0.6917 0.0806 -0.7177
vn -0.9493 0.1020 -0.2974
vn -0.4974 0.0264 0.8671
vn -0.7951 0.2165 0.5665
vn 0.1722 0.1164 0.9782
vn -0.6794 -0.6368 0.3646
vn -0.2219 -0.9311 0.2895
vn 0.3618 -0.5086 -0.7813
vn 0.9781 0.1902 -0.0849
vn -0.3669 -0.8398 -0.4001
vn -0.0787 0.9929 0.0887
vn -0.2229 0.8236 0.5215
vn 0.1717 -0.1013 0.9799
vn 0.8053 0.0640 0.5894
vn 0.3756 -0.1332 -0.9171
vn 0.5784 0.7315 0.3610
vn 0.9553 0.1207 -0.2699
vn -0.9599 0.2277 0.1637
# 55 vertex normals

vt 0.2826 0.2885 0.0000
vt 0.3547 0.2779 0.0000
vt 0.3149 0.7158 0.0000
vt 0.5574 0.7096 0.0000
vt 0.5903 0.3533 0.0000
vt 0.6364 0.6663 0.0000
vt 0.0825 0.6123 0.0000
vt 0.2009 0.2563 0.0000
vt 0.1762 0.7554 0.0000
vt 0.8215 0.0908 0.0000
vt 0.7382 0.2162 0.0000
vt 0.6441 0.0860 0.0000
vt 0.9995 0.4109 0.0000
vt 0.8963 0.4227 0.0000
vt 0.8872 0.2133 0.0000
vt 0.7028 0.7573 0.0000
vt 0.7366 0.0312 0.0000
vt 0.8132 0.0125 0.0000
vt 0.3838 0.8134 0.0000
vt 0.1128 0.2618 0.0000
vt 0.6390 0.8325 0.0000
vt 0.5885 0.7652 0.0000
vt 0.2262 0.9641 0.0000
vt 0.1592 0.9815 0.0000
vt 0.1373 0.9166 0.0000
vt 0.4618 0.4324 0.0000
vt 0.4568 0.1245 0.0000
vt 0.5387 0.4086 0.0000
vt 0.8964 0.6310 0.0000
vt 0.2042 0.2065 0.0000
vt 0.2476 0.1342 0.0000
vt 0.3623 0.2137 0.0000
vt 0.7289 0.5598 0.0000
vt 0.8071 0.3384 0.0000
vt 0.7792 0.6953 0.0000
vt 0.6724 0.4331 0.0000
vt 0.5796 0.1253 0.0000
vt 0.0005 0.9317 0.0000
vt 0.1157 0.9686 0.0000
vt 0.9595 0.0635 0.0000
vt 0.8502 0.0308 0.0000
vt 0.9528 0.2004 0.0000
vt 0.4310 0.5820 0.0000
vt 0.3164 0.9207 0.0000
vt 0.3472 0.8397 0.0000
vt 0.5079 0.8296 0.0000
vt 0.3824 0.1690 0.0000
vt 0.4320 0.9296 0.0000
vt 0.0649 0.8697 0.0000
vt 0.7568 0.3047 0.0000
vt 0.8799 0.1359 0.0000
vt 0.9494 0.6511 0.0000
vt 0.9354 0.7909 0.0000
vt 0.4389 0.1935 0.0000
vt 0.4400 0.3360 0.0000
vt 0.4592 0.7432 0.0000
vt 0.4606 0.7952 0.0000
vt 0.0240 0.8438 0.0000
vt 0.5156 0.0436 0.0000
vt 0.4913 0.7806 0.0000
vt 0.8756 0.7501 0.0000
vt 0.7374 0.8401 0.0000
vt 0.2014 0.1392 0.0000
vt 0.0394 0.2250 0.0000
vt 0.1468 0.1442 0.0000
vt 0.6801 0.0005 0.0000
vt 0.7442 0.0050 0.0000
vt 0.2905 0.9819 0.0000
vt 0.6344 0.0096 0.0000
vt 0.3296 0.9757 0.0000
vt 0.2222 0.9879 0.0000
vt 0.6919 0.8374 0.0000
vt 0.8744 0.8081 0.0000
# 73 texture coords

o Group47228
g Group47228
usemtl default
s 1
f 1/1/1 2/2/2 3/3/3 
f 4/4/4 5/5/5 6/6/6 
f 7/7/7 8/8/8 9/9/9 
f 10/10/10 11/11/11 12/12/12 
f 13/13/13 14/14/14 15/15/15 
f 6/6/6 16/16/16 4/4/4 
f 17/17/17 18/18/18 10/10/10 
f 3/3/3 2/2/2 19/19/19 
f 7/7/7 20/20/20 8/8/8 
f 21/21/21 22/22/22 16/16/16 
f 23/23/23 24/24/24 25/25/25 
f 26/26/26 27/27/27 28/28/28 
f 14/14/14 13/13/13 29/29/29 
f 30/30/30 31/31/31 32/32/32 
f 33/33/33 34/34/34 35/35/35 
f 36/36/36 5/5/5 11/11/11 
f 11/11/11 37/37/37 12/12/12 
f 38/38/38 25/25/25 39/39/39 
f 40/40/40 10/10/10 41/41/41 
f 42/42/42 13/13/13 15/15/15 
f 13/43/13 19/19/19 2/2/2 
f 1/1/1 32/32/32 2/2/2 
f 43/44/43 25/25/25 9/9/9 
f 44/45/44 43/44/43 3/3/3 
f 37/37/37 11/11/11 5/5/5 
f 28/28/28 27/27/27 37/37/37 
f 28/28/28 4/4/4 26/26/26 
f 21/21/21 45/46/45 22/22/22 
f 33/33/33 35/35/35 16/16/16 
f 32/32/32 31/31/31 46/47/46 
f 42/42/42 15/15/15 40/40/40 
f 44/45/44 40/48/40 43/44/43 
f 25/25/25 47/49/47 9/9/9 
f 47/49/47 25/25/25 38/38/38 
f 34/34/34 33/33/33 48/50/48 
f 49/51/49 34/34/34 48/50/48 
f 50/52/50 51/53/51 29/29/29 
f 51/54/51 50/55/50 2/2/2 
f 27/27/27 26/26/26 45/56/45 
f 45/56/45 26/26/26 4/4/4 
f 1/1/1 30/30/30 32/32/32 
f 20/20/20 30/30/30 8/8/8 
f 42/57/42 40/48/40 19/19/19 
f 42/57/42 19/19/19 13/43/13 
f 10/10/10 40/40/40 49/51/49 
f 10/10/10 49/51/49 11/11/11 
f 50/52/50 29/29/29 13/13/13 
f 50/55/50 13/43/13 2/2/2 
f 27/58/27 20/20/20 7/7/7 
f 38/38/38 27/58/27 47/49/47 
f 27/27/27 38/59/38 37/37/37 
f 37/37/37 38/59/38 12/12/12 
f 33/33/33 16/16/16 6/6/6 
f 36/36/36 6/6/6 5/5/5 
f 39/39/39 25/25/25 24/24/24 
f 12/12/12 17/17/17 10/10/10 
f 16/16/16 22/22/22 4/4/4 
f 52/60/52 45/56/45 4/4/4 
f 14/14/14 29/29/29 53/61/53 34/34/34 
f 49/51/49 15/15/15 14/14/14 34/34/34 
f 18/18/18 41/41/41 10/10/10 
f 23/23/23 25/25/25 43/44/43 
f 53/61/53 31/62/31 16/16/16 
f 31/31/31 30/30/30 54/63/54 
f 27/58/27 45/64/45 20/20/20 
f 45/64/45 30/30/30 20/20/20 
f 32/32/32 51/54/51 2/2/2 
f 32/32/32 46/47/46 51/54/51 
f 45/64/45 21/65/21 30/30/30 
f 21/65/21 54/63/54 30/30/30 
f 5/5/5 4/4/4 28/28/28 
f 5/5/5 28/28/28 37/37/37 
f 53/61/53 16/16/16 35/35/35 
f 34/34/34 53/61/53 35/35/35 
f 44/45/44 3/3/3 19/19/19 
f 44/45/44 19/19/19 40/48/40 
f 3/3/3 9/9/9 8/8/8 
f 3/3/3 43/44/43 9/9/9 
f 11/11/11 49/51/49 48/50/48 
f 48/50/48 36/36/36 11/11/11 
f 40/40/40 15/15/15 49/51/49 
f 17/17/17 24/66/24 55/67/55 
f 12/12/12 24/66/24 17/17/17 
f 8/8/8 30/30/30 1/1/1 
f 8/8/8 1/1/1 3/3/3 
f 53/61/53 29/29/29 51/53/51 
f 17/17/17 55/67/55 18/18/18 
f 43/44/43 18/68/18 23/23/23 
f 52/60/52 22/22/22 45/46/45 
f 22/22/22 52/60/52 4/4/4 
f 6/6/6 36/36/36 33/33/33 
f 36/36/36 48/50/48 33/33/33 
f 47/49/47 7/7/7 9/9/9 
f 7/7/7 47/49/47 27/58/27 
f 24/66/24 12/12/12 39/69/39 
f 39/69/39 12/12/12 38/59/38 
f 18/68/18 43/44/43 41/70/41 
f 41/70/41 43/44/43 40/48/40 
f 24/24/24 23/23/23 55/71/55 
f 55/71/55 23/23/23 18/68/18 
f 21/21/21 16/16/16 54/72/54 
f 54/72/54 16/16/16 31/62/31 
f 31/62/31 53/61/53 46/73/46 
f 46/73/46 53/61/53 51/53/51 
# 2 polygons - 102 triangles

