# 3ds Max Wavefront OBJ Exporter v0.97b - (c)2007 guruware
# File Created: 04.12.2018 14:09:49

mtllib Low_flag_3DS.mtl

#
# object default
#

v  -1044.1300 2038.7816 364.6404
v  -1189.3846 2054.8179 422.5807
v  -1187.5994 1687.5956 414.5704
v  -1019.7648 1665.9551 457.4977
v  -565.0477 1997.1508 414.0581
v  -585.3265 1628.3979 399.9185
v  63.3931 1959.8098 409.6293
v  39.2892 1607.9148 410.4022
v  754.2880 1987.0874 401.6071
v  698.1528 1619.0894 383.0650
v  1173.9777 1667.3518 411.5579
v  1181.5679 2050.7239 418.6051
v  829.2334 950.2432 427.2966
v  1225.5217 1007.0433 403.9276
v  1188.4198 1345.3889 405.9953
v  688.1873 1264.9377 406.4553
v  537.7640 895.9778 445.0763
v  204.7002 870.5919 439.3141
v  41.4192 1228.4949 402.6694
v  -164.5869 868.5571 441.6829
v  -489.0920 899.8156 447.1105
v  -609.3586 1268.4274 396.3486
v  -835.5126 960.8234 426.7712
v  -1056.7985 1324.4913 426.3427
v  -1208.7041 1361.3362 409.3986
v  -1247.4087 1028.0532 412.9802
v  -1116.4440 1009.5493 402.6242
v  800.5578 2337.5229 408.6622
v  1214.8306 2388.7180 411.0833
v  1028.3403 2521.5327 408.8134
v  1245.8450 2517.8318 408.9846
v  1283.4132 2574.3921 409.1578
v  1274.0734 2587.2356 408.9073
v  74.8674 2298.2427 409.2617
v  -572.3667 2315.6179 408.9579
v  -104.2938 2445.2534 409.0696
v  -431.1465 2462.5471 408.9176
v  279.3305 2444.1592 408.9254
v  589.1559 2465.8423 408.8310
v  -1041.1508 2329.6377 426.1755
v  -1213.3167 2360.5779 415.7161
v  -732.3394 2494.1790 408.8303
v  -1123.8163 2568.4067 408.3792
v  -1270.0596 2607.9512 411.7423
v  -1280.2925 2590.3875 410.3112
v  -1235.8395 2519.6035 409.6058
v  -1044.1300 2038.7816 363.7425
v  -1019.7648 1665.9551 456.5998
v  -1187.5994 1687.5956 413.6725
v  -1189.3846 2054.8179 421.6828
v  -565.0477 1997.1508 413.1602
v  -585.3265 1628.3979 399.0206
v  63.3931 1959.8098 408.7314
v  39.2892 1607.9148 409.5043
v  754.2880 1987.0874 400.7092
v  698.1528 1619.0894 382.1671
v  1181.5679 2050.7239 417.7072
v  1173.9777 1667.3518 410.6600
v  829.2334 950.2432 426.3987
v  688.1873 1264.9377 405.5574
v  1188.4198 1345.3889 405.0974
v  1225.5217 1007.0433 403.0297
v  537.7640 895.9778 444.1784
v  204.7002 870.5919 438.4162
v  41.4192 1228.4949 401.7715
v  -164.5869 868.5571 440.7850
v  -489.0920 899.8156 446.2126
v  -609.3586 1268.4274 395.4507
v  -835.5126 960.8234 425.8733
v  -1056.7985 1324.4913 425.4448
v  -1116.4440 1009.5493 401.7263
v  -1247.4087 1028.0532 412.0823
v  -1208.7041 1361.3362 408.5007
v  800.5578 2337.5229 407.7643
v  1214.8306 2388.7180 410.1854
v  1028.3403 2521.5327 407.9155
v  1245.8450 2517.8318 408.0867
v  1274.0734 2587.2356 408.0094
v  1283.4132 2574.3921 408.2599
v  74.8674 2298.2427 408.3638
v  -572.3667 2315.6179 408.0600
v  -104.2938 2445.2534 408.1717
v  -431.1465 2462.5471 408.0197
v  279.3305 2444.1592 408.0275
v  589.1559 2465.8423 407.9331
v  -1041.1508 2329.6377 425.2776
v  -1213.3167 2360.5779 414.8182
v  -732.3394 2494.1790 407.9324
v  -1123.8163 2568.4067 407.4813
v  -1235.8395 2519.6035 408.7079
v  -1280.2925 2590.3875 409.4133
v  -1270.0596 2607.9512 410.8444
# 92 vertices

vn 0.1407 0.0219 0.9898
vn 0.3722 0.0188 0.9279
vn -0.2492 -0.0115 0.9684
vn -0.0405 0.0764 0.9963
vn -0.0472 -0.0104 0.9988
vn 0.0554 -0.0272 0.9981
vn 0.0094 0.0012 1.0000
vn 0.0116 -0.0096 0.9999
vn -0.0111 -0.0342 0.9994
vn -0.0081 0.0096 0.9999
vn -0.0579 -0.0184 0.9982
vn -0.0408 0.0073 0.9991
vn 0.0456 0.0864 0.9952
vn 0.0588 0.0003 0.9983
vn 0.0028 -0.0118 0.9999
vn -0.0030 0.0756 0.9971
vn -0.0027 0.1052 0.9945
vn -0.0129 0.0960 0.9953
vn -0.0056 0.0439 0.9990
vn 0.0188 0.0971 0.9951
vn 0.0070 0.1387 0.9903
vn 0.0197 0.0467 0.9987
vn -0.0517 0.1359 0.9894
vn -0.0331 -0.0777 0.9964
vn -0.1095 0.0058 0.9940
vn 0.0790 0.0015 0.9969
vn -0.0130 -0.0727 0.9973
vn -0.0010 -0.0099 1.0000
vn -0.0083 0.0202 0.9998
vn -0.0006 0.0001 1.0000
vn -0.0007 0.0048 1.0000
vn -0.0162 0.0077 0.9998
vn -0.0047 0.0161 0.9999
vn 0.0002 0.0013 1.0000
vn 0.0144 0.0129 0.9998
vn -0.0003 0.0010 1.0000
vn -0.0004 0.0006 1.0000
vn 0.0002 0.0020 1.0000
vn 0.0003 -0.0008 1.0000
vn -0.0157 -0.0718 0.9973
vn -0.0561 0.0254 0.9981
vn -0.0010 -0.0002 1.0000
vn -0.0003 0.0538 0.9986
vn 0.0008 -0.0817 0.9967
vn -0.0589 -0.0469 0.9972
vn 0.0030 0.0183 0.9998
vn -0.1198 0.0122 -0.9927
vn 0.0689 -0.0503 -0.9964
vn 0.1595 -0.0922 -0.9829
vn -0.2893 0.0807 -0.9538
vn 0.0131 -0.0179 -0.9998
vn -0.0488 0.0324 -0.9983
vn -0.0035 0.0035 -1.0000
vn -0.0080 0.0125 -0.9999
vn 0.0070 0.0310 -0.9995
vn 0.0138 -0.0048 -0.9999
vn 0.0328 0.0090 -0.9994
vn 0.0419 0.0015 -0.9991
vn -0.0283 -0.0588 -0.9979
vn 0.0106 -0.0680 -0.9976
vn -0.0156 -0.0042 -0.9999
vn -0.0588 -0.0003 -0.9983
vn 0.0027 -0.1052 -0.9945
vn 0.0078 -0.1032 -0.9946
vn -0.0042 -0.0519 -0.9986
vn -0.0188 -0.0971 -0.9951
vn 0.0079 -0.1229 -0.9924
vn -0.0071 -0.0406 -0.9991
vn 0.0517 -0.1359 -0.9894
vn 0.0073 0.0572 -0.9983
vn -0.0376 0.0401 -0.9985
vn -0.0173 0.0561 -0.9983
vn 0.1372 0.0192 -0.9904
vn 0.0059 0.0026 -1.0000
vn 0.0053 -0.0172 -0.9998
vn 0.0040 -0.0072 -1.0000
vn 0.0007 -0.0048 -1.0000
vn 0.0047 -0.0161 -0.9999
vn 0.0031 -0.0086 -1.0000
vn -0.0015 -0.0023 -1.0000
vn 0.0098 0.0080 -0.9999
vn 0.0003 -0.0010 -1.0000
vn 0.0004 -0.0006 -1.0000
vn -0.0002 -0.0020 -1.0000
vn -0.0006 0.0000 -1.0000
vn -0.0223 0.0338 -0.9992
vn 0.0456 -0.0376 -0.9983
vn -0.0240 -0.0361 -0.9991
vn 0.0062 -0.0442 -0.9990
vn -0.0030 -0.0183 -0.9998
vn -0.0056 0.0482 -0.9988
vn -0.0008 0.0817 -0.9967
# 92 vertex normals

vt 0.0913 0.4598 0.0000
vt 0.0331 0.4661 0.0000
vt 0.0334 0.3221 0.0000
vt 0.0992 0.3127 0.0000
vt 0.2778 0.4420 0.0000
vt 0.2694 0.2984 0.0000
vt 0.5229 0.4266 0.0000
vt 0.5131 0.2895 0.0000
vt 0.7925 0.4364 0.0000
vt 0.7701 0.2929 0.0000
vt 0.9559 0.3112 0.0000
vt 0.9593 0.4608 0.0000
vt 0.8205 0.0317 0.0000
vt 0.9752 0.0538 0.0000
vt 0.9610 0.1857 0.0000
vt 0.7658 0.1548 0.0000
vt 0.7067 0.0103 0.0000
vt 0.5768 0.0010 0.0000
vt 0.5135 0.1415 0.0000
vt 0.4328 0.0005 0.0000
vt 0.3062 0.0126 0.0000
vt 0.2598 0.1578 0.0000
vt 0.1712 0.0378 0.0000
vt 0.0849 0.1798 0.0000
vt 0.0253 0.1940 0.0000
vt 0.0107 0.0640 0.0000
vt 0.0617 0.0569 0.0000
vt 0.8110 0.5730 0.0000
vt 0.9726 0.5926 0.0000
vt 0.9000 0.6446 0.0000
vt 0.9848 0.6429 0.0000
vt 0.9995 0.6649 0.0000
vt 0.9959 0.6699 0.0000
vt 0.5279 0.5585 0.0000
vt 0.2756 0.5662 0.0000
vt 0.4583 0.6161 0.0000
vt 0.3310 0.6233 0.0000
vt 0.6078 0.6152 0.0000
vt 0.7287 0.6233 0.0000
vt 0.0929 0.5738 0.0000
vt 0.0262 0.5862 0.0000
vt 0.2138 0.6365 0.0000
vt 0.0615 0.6673 0.0000
vt 0.0045 0.6831 0.0000
vt 0.0005 0.6762 0.0000
vt 0.0176 0.6485 0.0000
# 46 texture coords

o default
g default
usemtl default
s 1
f 1/1/1 2/2/2 3/3/3 4/4/4 
f 5/5/5 1/1/1 4/4/4 6/6/6 
f 7/7/7 5/5/5 6/6/6 8/8/8 
f 9/9/9 7/7/7 8/8/8 10/10/10 
f 10/10/10 11/11/11 12/12/12 9/9/9 
f 13/13/13 14/14/14 15/15/15 16/16/16 
f 16/16/16 15/15/15 11/11/11 10/10/10 
f 17/17/17 13/13/13 16/16/16 
f 18/18/18 17/17/17 16/16/16 19/19/19 
f 19/19/19 16/16/16 10/10/10 8/8/8 
f 20/20/20 18/18/18 19/19/19 
f 21/21/21 20/20/20 19/19/19 22/22/22 
f 22/22/22 19/19/19 8/8/8 6/6/6 
f 23/23/23 21/21/21 22/22/22 
f 24/24/24 22/22/22 6/6/6 4/4/4 
f 24/24/24 25/25/25 26/26/26 27/27/27 
f 27/27/27 23/23/23 22/22/22 24/24/24 
f 4/4/4 3/3/3 25/25/25 24/24/24 
f 28/28/28 9/9/9 12/12/12 29/29/29 
f 30/30/30 28/28/28 29/29/29 31/31/31 
f 30/30/30 31/31/31 32/32/32 33/33/33 
f 34/34/34 35/35/35 5/5/5 7/7/7 
f 36/36/36 37/37/37 35/35/35 34/34/34 
f 38/38/38 36/36/36 34/34/34 
f 28/28/28 30/30/30 39/39/39 
f 28/28/28 34/34/34 7/7/7 9/9/9 
f 39/39/39 38/38/38 34/34/34 28/28/28 
f 40/40/40 41/41/41 2/2/2 1/1/1 
f 35/35/35 37/37/37 42/42/42 
f 43/43/43 44/44/44 45/45/45 46/46/46 
f 40/40/40 35/35/35 42/42/42 43/43/43 
f 43/43/43 46/46/46 41/41/41 40/40/40 
f 1/1/1 5/5/5 35/35/35 40/40/40 
f 47/1/47 48/4/48 49/3/49 50/2/50 
f 51/5/51 52/6/52 48/4/48 47/1/47 
f 53/7/53 54/8/54 52/6/52 51/5/51 
f 55/9/55 56/10/56 54/8/54 53/7/53 
f 56/10/56 55/9/55 57/12/57 58/11/58 
f 59/13/59 60/16/60 61/15/61 62/14/62 
f 60/16/60 56/10/56 58/11/58 61/15/61 
f 59/13/59 63/17/63 60/16/60 
f 64/18/64 65/19/65 60/16/60 63/17/63 
f 65/19/65 54/8/54 56/10/56 60/16/60 
f 64/18/64 66/20/66 65/19/65 
f 67/21/67 68/22/68 65/19/65 66/20/66 
f 68/22/68 52/6/52 54/8/54 65/19/65 
f 67/21/67 69/23/69 68/22/68 
f 70/24/70 48/4/48 52/6/52 68/22/68 
f 70/24/70 71/27/71 72/26/72 73/25/73 
f 71/27/71 70/24/70 68/22/68 69/23/69 
f 48/4/48 70/24/70 73/25/73 49/3/49 
f 74/28/74 75/29/75 57/12/57 55/9/55 
f 76/30/76 77/31/77 75/29/75 74/28/74 
f 76/30/76 78/33/78 79/32/79 77/31/77 
f 80/34/80 53/7/53 51/5/51 81/35/81 
f 82/36/82 80/34/80 81/35/81 83/37/83 
f 82/36/82 84/38/84 80/34/80 
f 76/30/76 74/28/74 85/39/85 
f 74/28/74 55/9/55 53/7/53 80/34/80 
f 85/39/85 74/28/74 80/34/80 84/38/84 
f 86/40/86 47/1/47 50/2/50 87/41/87 
f 83/37/83 81/35/81 88/42/88 
f 89/43/89 90/46/90 91/45/91 92/44/92 
f 86/40/86 89/43/89 88/42/88 81/35/81 
f 89/43/89 86/40/86 87/41/87 90/46/90 
f 47/1/47 86/40/86 81/35/81 51/5/51 
# 54 polygons - 12 triangles

